<svg xmlns="http://www.w3.org/2000/svg" width="80" height="75" viewBox="0 0 80 75">
  <g fill="none">
    <polygon fill="#87613E" points="65 2 16 2 2 17.545 2 40 79 40 79 17.545"/>
    <path fill="#87613E" d="M78.2608696,42 L1.73913043,42 C0.778695652,42 0,41.2172775 0,40.25 L0,17.5 C0,17.07104 0.156243478,16.6574625 0.439026087,16.337895 L14.3520696,0.587895 C14.6824,0.2136225 15.1554087,0 15.6521739,0 L64.3478261,0 C64.8445913,0 65.3176,0.2136225 65.6479304,0.587895 L79.5609739,16.337895 C79.8437565,16.6574625 80,17.07104 80,17.5 L80,40.25 C80,41.2172775 79.2213043,42 78.2608696,42 Z M3.47826087,38.5 L76.5217391,38.5 L76.5217391,18.16479 L63.5665739,3.5 L16.4334261,3.5 L3.47826087,18.16479 L3.47826087,38.5 Z"/>
    <path fill="#C19F85" d="M76.5217391,75 L3.47826087,75 C1.55726957,75 0,73.4461656 0,71.5294118 L0,17.7352941 C0,16.7769085 0.778643478,16 1.73913043,16 L78.2608696,16 C79.2213565,16 80,16.7769085 80,17.7352941 L80,71.5294118 C80,73.4461656 78.4427304,75 76.5217391,75 Z"/>
    <rect width="80" height="3" y="44" fill="#A67C52"/>
    <path fill="#EFD358" d="M49.25 31L31.75 31C30.7835625 31 30 30.329095 30 29.5 30 28.670905 30.7835625 28 31.75 28L49.25 28C50.2164375 28 51 28.670905 51 29.5 51 30.329095 50.2164375 31 49.25 31zM49.25 63L31.75 63C30.7835625 63 30 62.329095 30 61.5 30 60.670905 30.7835625 60 31.75 60L49.25 60C50.2164375 60 51 60.670905 51 61.5 51 62.329095 50.2164375 63 49.25 63z"/>
  </g>
</svg>
