<svg xmlns="http://www.w3.org/2000/svg" width="150" height="150" viewBox="0 0 150 150">
  <g fill="none">
    <path fill="#223E49" d="M75,150 C74.36525,150 73.7269643,149.830857 73.1619643,149.490786 L1.73339286,106.633643 C0.659178571,105.988429 0,104.82525 0,103.571429 C0,102.317607 0.659178571,101.154429 1.73339286,100.509214 L73.1619643,57.6520714 C74.292,56.9719643 75.708,56.9719643 76.8380357,57.6520714 L148.266607,100.509214 C149.340821,101.154429 150,102.317607 150,103.571429 C150,104.82525 149.340821,105.988429 148.266607,106.633643 L76.8380357,149.490786 C76.2730357,149.830857 75.63475,150 75,150 Z"/>
    <path fill="#335262" d="M75,121.428571 C74.36525,121.428571 73.7269643,121.259429 73.1619643,120.919357 L1.73339286,78.0622143 C0.659178571,77.417 0,76.2538214 0,75 C0,73.7461786 0.659178571,72.583 1.73339286,71.9377857 L73.1619643,29.0806429 C74.292,28.4005357 75.708,28.4005357 76.8380357,29.0806429 L148.266607,71.9377857 C149.340821,72.583 150,73.7461786 150,75 C150,76.2538214 149.340821,77.417 148.266607,78.0622143 L76.8380357,120.919357 C76.2730357,121.259429 75.63475,121.428571 75,121.428571 Z"/>
    <path fill="#5A7A84" d="M75,92.8571429 C74.36525,92.8571429 73.7269643,92.688 73.1619643,92.3479286 L1.73339286,49.4907857 C0.659178571,48.8455714 0,47.6823929 0,46.4285714 C0,45.17475 0.659178571,44.0115714 1.73339286,43.3663571 L73.1619643,0.509214286 C74.292,-0.170892857 75.708,-0.170892857 76.8380357,0.509214286 L148.266607,43.3663571 C149.340821,44.0115714 150,45.17475 150,46.4285714 C150,47.6823929 149.340821,48.8455714 148.266607,49.4907857 L76.8380357,92.3479286 C76.2730357,92.688 75.63475,92.8571429 75,92.8571429 Z"/>
  </g>
</svg>
