<svg xmlns="http://www.w3.org/2000/svg" width="100" height="100" viewBox="0 0 100 100">
  <g fill="none" fill-rule="evenodd">
    <rect width="27.273" height="34.091" x="36.364" y="45.455" fill="#EAC3A2" fill-rule="nonzero"/>
    <path fill="#EAD8C5" fill-rule="nonzero" d="M50,59.0909091 C36.2149325,59.0909091 25,47.8759766 25,34.0909091 L25,25 C25,11.2149325 36.2149325,0 50,0 C63.7850675,0 75,11.2149325 75,25 L75,34.0909091 C75,47.8759766 63.7850675,59.0909091 50,59.0909091 Z"/>
    <path fill="#8680D8" d="M93.7488902,81.3559793 L63.6363636,68.1818182 L63.5950261,68.1818182 C59.8008589,71.0235595 55.1051748,72.7272727 50,72.7272727 C44.8948252,72.7272727 40.1992798,71.0235595 36.4051125,68.1818182 L36.3636364,68.1818182 L36.0796841,68.323725 L6.25818409,81.3559793 C2.80192977,82.8664607 0,87.1583418 0,90.930037 L0,97.7206143 C0,98.9794645 1.02233886,100 2.27661136,100 L97.7235275,100 C98.9808516,100 100,99.0048495 100,97.7206143 L100,90.930037 C100,87.1529318 97.206948,82.8689575 93.7488902,81.3559793 Z"/>
  </g>
</svg>
